<svg x="0px" y="0px" width="64px" height="64px" viewBox="0 0 64 64" enable-background="new 0 0 64 64" xml:space="preserve">
  <path fill="none" stroke-width="2" stroke-miterlimit="10" d="M11,48C5.477,48,1,43.523,1,38s4.477-10,10-10h2v20  H11z" style="stroke-dasharray: 56, 58; stroke-dashoffset: 0;"/>
  <path fill="none" stroke-width="2" stroke-miterlimit="10" d="M53,28c5.523,0,10,4.477,10,10s-4.477,10-10,10h-2  V28H53z" style="stroke-dasharray: 56, 58; stroke-dashoffset: 0;"/>
  <path fill="none" stroke-width="2" stroke-miterlimit="10" d="M13,31v-9c0,0,0-16,19-16s19,16,19,16v6" style="stroke-dasharray: 71, 73; stroke-dashoffset: 0;"/>
  <path fill="none" stroke-width="2" stroke-miterlimit="10" d="M51,48L51,53L36,59L28,59L28,55L36,55L36,58" style="stroke-dasharray: 45, 47; stroke-dashoffset: 0;"/>
</svg>
